<?xml version="1.0" encoding="utf-8"?>
<!-- Generator: Adobe Illustrator 16.0.0, SVG Export Plug-In . SVG Version: 6.00 Build 0)  -->
<!DOCTYPE svg PUBLIC "-//W3C//DTD SVG 1.1//EN" "http://www.w3.org/Graphics/SVG/1.1/DTD/svg11.dtd">
<svg version="1.1" id="Layer_1" xmlns="http://www.w3.org/2000/svg" xmlns:xlink="http://www.w3.org/1999/xlink" x="0px" y="0px"
	 width="227px" height="96px" viewBox="0 0 227 96" enable-background="new 0 0 227 96" xml:space="preserve">
<g>
	<path fill="#FFFFFF" d="M114.77,0h1.39c7.56,0.26,14.21,4.75,19.03,10.3c6.1,6.83,10.03,15.29,13.06,23.86
		c6.27-5.06,14.22-8.93,22.45-8.13c9,1.16,15.85,8.37,19.54,16.26c5.1,10.8,6.62,22.99,6.47,34.83c6.84-2.92,15.1-6.59,22.35-2.87
		c7.49,4.19,8.13,14.22,6.69,21.74l0.88,0.01H4.34c-2.76-7.71-2.81-16.32-0.21-24.06c1.93-5.92,8.55-9.16,14.49-8.21
		c5.9,0.57,11.06,3.62,15.69,7.11c-0.39-14.72,0.6-30.25,7.96-43.36c4-6.9,10.82-13.21,19.22-13.32c9.61-0.7,18.19,4.94,24.91,11.23
		c2.26-5.51,5.46-10.63,9.4-15.09C100.62,4.77,107.24,0.28,114.77,0z"/>
</g>
</svg>
